<svg width="24" height="24" viewBox="0 0 24 24" fill="none" xmlns="http://www.w3.org/2000/svg">
<path d="M3.13209 20.8564V5.2273C3.13209 3.21166 4.77159 1.5718 6.7871 1.5718H17.069C19.0845 1.5718 20.724 3.21166 20.724 5.2273V20.8564H22.2958V5.2273C22.2958 2.345 19.9515 9.53674e-06 17.069 9.53674e-06H6.7871C3.90589 9.53674e-06 1.5603 2.345 1.5603 5.2273V20.8564H3.13209Z" fill="#87D6BA"/>
<path d="M1.5 22.1864V24H22.296V22.1864H1.5Z" fill="white"/>
<path d="M10.0241 20.7959V15.6574H13.4094V20.7959H15.223V13.8438H8.21045V20.7959H10.0241Z" fill="white"/>
<path fill-rule="evenodd" clip-rule="evenodd" d="M8.30943 9.76674C8.25381 9.77448 8.16555 9.73651 8.11235 9.72515C8.08092 9.71874 8.04343 9.72865 8.02892 9.70737C8.0253 9.69081 8.02288 9.674 8.01925 9.6572C8.00112 9.64317 7.98419 9.62902 7.96605 9.615C7.94429 9.58163 7.95517 9.54548 7.93462 9.50933C7.89351 9.43642 7.83305 9.36122 7.78831 9.29145C7.75325 9.23523 7.74962 9.17587 7.70972 9.12642C7.68917 9.10127 7.64928 9.08301 7.62873 9.0575C7.58278 8.99982 7.52837 8.85244 7.4389 8.84809C7.37603 8.96682 7.31679 9.09848 7.2781 9.2368C7.2781 9.27066 7.2781 9.30451 7.2781 9.3386C7.26963 9.36653 7.24666 9.39773 7.2394 9.43146C7.23215 9.46399 7.22248 9.56506 7.22973 9.59614C7.23215 9.6075 7.22127 9.62443 7.22731 9.65212C7.23215 9.67908 7.2394 9.74219 7.21401 9.75562C7.19587 9.76493 7.17169 9.76988 7.15235 9.78185C7.14147 9.78826 7.07617 9.86274 7.06287 9.87773C6.99517 9.88208 6.94197 9.86262 6.94076 9.85089C6.93834 9.8394 6.92384 9.80301 6.95527 9.78221C6.96736 9.77484 7.00121 9.73276 6.99637 9.71753C6.99275 9.70773 7.01815 9.6792 7.02419 9.65587C7.03386 9.61718 7.02661 9.59976 7.03749 9.5566C7.04111 9.48466 7.04595 9.41272 7.04958 9.34078C7.0665 9.26413 7.09915 9.19751 7.11366 9.12182C7.1064 9.08277 7.12454 8.74253 7.13905 8.66189C7.14389 8.63747 7.15598 8.60615 7.15719 8.58161C7.16324 8.56142 7.18621 8.52551 7.19104 8.50592C7.19588 8.48537 7.17895 8.47823 7.18742 8.45526C7.19951 8.42612 7.22731 8.39396 7.2394 8.36156C7.25875 8.31271 7.25391 8.27112 7.27568 8.2236C7.29502 8.18189 7.32646 8.13655 7.3446 8.09508C7.35306 8.06074 7.399 7.96075 7.40505 7.93875C7.41835 7.8893 7.39053 7.83005 7.40141 7.7748C7.42076 7.67263 7.41109 7.5429 7.38207 7.45318C7.36152 7.39092 7.38328 7.28295 7.39416 7.24438C7.39416 7.24365 7.39537 7.24317 7.39537 7.24244C7.39537 7.24232 7.39537 7.24075 7.39658 7.23882C7.39658 7.23628 7.39779 7.23422 7.399 7.23277C7.39659 7.22721 7.39537 7.22237 7.39416 7.21161C7.39416 7.21125 7.39416 7.21089 7.39416 7.21053C7.39416 7.20847 7.39416 7.20641 7.39416 7.20448C7.39416 7.20412 7.39416 7.20363 7.39416 7.20351C7.38933 7.19916 7.3857 7.19444 7.38207 7.18913C7.38086 7.18586 7.37845 7.18235 7.37845 7.17848C7.37845 7.17715 7.37723 7.17606 7.37723 7.17486C7.37723 7.17353 7.37603 7.17244 7.37482 7.17183C7.3724 7.17087 7.37119 7.1693 7.37119 7.16748C7.36998 7.16422 7.36998 7.16083 7.36998 7.15733C7.36998 7.15466 7.36998 7.15201 7.36998 7.14935C7.36998 7.14596 7.36998 7.14257 7.36998 7.13919C7.36877 7.13556 7.36877 7.13181 7.37119 7.12855C7.37239 7.12456 7.37602 7.12263 7.37965 7.12202C7.38086 7.1219 7.38207 7.12166 7.38449 7.12142C7.38691 7.12105 7.38933 7.11984 7.39054 7.11839C7.39175 7.11767 7.39175 7.11646 7.39296 7.11537C7.39296 7.11307 7.39416 7.11041 7.39416 7.10811C7.39537 7.10618 7.39658 7.10449 7.39658 7.10267C7.39779 7.10038 7.40021 7.09941 7.40263 7.09953C7.40505 7.09965 7.40747 7.10002 7.41109 7.1005C7.41351 7.10098 7.41592 7.10147 7.41955 7.09989C7.42076 7.09929 7.42197 7.09869 7.42197 7.09808C7.4256 7.09651 7.42681 7.09469 7.42923 7.093C7.43044 7.0924 7.43164 7.09155 7.43164 7.09058C7.43285 7.08829 7.43285 7.08611 7.43406 7.08393C7.43527 7.08236 7.43648 7.08128 7.43768 7.08019C7.4401 7.07825 7.44252 7.07789 7.44615 7.07849C7.44978 7.07946 7.4534 7.08115 7.45582 7.08261C7.45945 7.08418 7.46308 7.08539 7.46671 7.08563C7.46912 7.08575 7.47154 7.08526 7.47396 7.08393C7.47637 7.08188 7.48001 7.08031 7.48364 7.0797C7.48727 7.07898 7.49089 7.08031 7.49331 7.08369C7.49452 7.08611 7.49573 7.08889 7.49573 7.09179C7.49573 7.09615 7.49572 7.10062 7.49693 7.10509C7.49693 7.1086 7.49693 7.11223 7.49693 7.11561C7.49693 7.11851 7.49693 7.12142 7.49693 7.12432C7.49572 7.13012 7.49451 7.1358 7.49451 7.14136C7.49451 7.14342 7.49451 7.14523 7.49451 7.14717C7.49451 7.14874 7.49452 7.15019 7.49573 7.15116C7.49815 7.1537 7.50176 7.156 7.50418 7.15854C7.50418 7.15878 7.50419 7.1589 7.5054 7.15914C7.50782 7.16071 7.50902 7.16313 7.50902 7.16615C7.50902 7.17038 7.50902 7.17449 7.50902 7.17873C7.50902 7.17969 7.50902 7.18066 7.50902 7.18139C7.50661 7.18465 7.5054 7.18779 7.50298 7.19033C7.50177 7.19154 7.50056 7.19251 7.49935 7.19323C7.4921 7.19734 7.48485 7.20121 7.47759 7.20545C7.47759 7.20545 7.47638 7.20569 7.47638 7.20581C7.47638 7.20666 7.47638 7.21089 7.47517 7.21463C7.47517 7.215 7.47517 7.21536 7.47517 7.21572C7.47517 7.22395 7.47517 7.23301 7.47517 7.24244C7.47517 7.24498 7.47517 7.24752 7.47517 7.25006C7.47638 7.25405 7.47638 7.25816 7.47638 7.26215C7.48242 7.30967 7.49693 7.36541 7.5066 7.40627C7.51507 7.444 7.49331 7.51194 7.50902 7.55898C7.52353 7.60432 7.53441 7.65437 7.54892 7.69802C7.55134 7.73018 7.55255 7.7621 7.55497 7.79402C7.55859 7.80321 7.57552 7.82836 7.57915 7.83743C7.59728 7.87575 7.58157 7.88893 7.63598 7.89123C7.63598 7.88724 7.60575 7.80079 7.62026 7.7644C7.65049 7.69089 7.60575 7.66381 7.68434 7.63346C7.72907 7.59453 7.83184 7.6227 7.85119 7.66332C7.87053 7.68472 7.87416 7.71555 7.86932 7.7407C7.87295 7.76682 7.85966 7.83924 7.84998 7.84915C7.83547 7.87213 7.82459 7.89195 7.80887 7.91493C7.79678 7.93379 7.77019 7.94552 7.76172 7.96849C7.72303 8.06558 7.82822 8.12349 7.80767 8.20921C7.80404 8.22167 7.78228 8.27124 7.77381 8.28478C7.7581 8.29893 7.74117 8.31319 7.72545 8.32722C7.70127 8.37147 7.71215 8.41657 7.69523 8.46493C7.68797 8.48694 7.66136 8.52974 7.67587 8.56794C7.68192 8.58439 7.70369 8.59781 7.71094 8.61123C7.71336 8.63372 7.71698 8.65609 7.72061 8.67845C7.74237 8.72839 7.78953 8.77639 7.81129 8.82596C7.85361 8.91918 7.86207 9.02002 7.91044 9.1032C7.93825 9.14999 7.99507 9.18687 8.0265 9.23221C8.06036 9.28226 8.06399 9.34042 8.09784 9.38649C8.15346 9.45963 8.17523 9.56736 8.25744 9.61476C8.43397 9.71692 8.32636 9.76444 8.30943 9.76674ZM7.98419 6.93534L8.23567 6.89097L7.48122 6.92313L7.79316 6.49899L7.41592 6.86292L7.32404 6.32524L7.33008 6.86715L6.90691 6.58423L7.27205 6.93401L6.54419 7.03352L6.79205 7.03545L6.63124 10.0217L7.48242 9.94713L7.48484 9.41212L7.77986 9.38637L7.87054 9.91315L8.71205 9.83965L7.98419 6.93534Z" fill="#87D6BA"/>
<path d="M10.4338 7.61419L9.66968 7.68117L9.65033 7.46233C9.64066 7.36017 9.62615 7.29596 9.60318 7.26973C9.58142 7.24349 9.54756 7.23237 9.50161 7.23624C9.45204 7.24071 9.41698 7.26284 9.39522 7.30274C9.37225 7.34263 9.36499 7.40103 9.37104 7.47757C9.3795 7.57611 9.40127 7.64913 9.43391 7.69641C9.46535 7.74405 9.54877 7.79749 9.68177 7.85673C10.0663 8.02745 10.3117 8.17375 10.4181 8.29562C10.5257 8.41738 10.591 8.62292 10.6164 8.91225C10.6345 9.12263 10.6224 9.27992 10.5777 9.38427C10.5342 9.48861 10.4386 9.58111 10.2936 9.66175C10.1485 9.74252 9.97558 9.79173 9.77487 9.80926C9.55482 9.82848 9.36258 9.80611 9.20056 9.74191C9.03734 9.67771 8.92731 9.58751 8.86807 9.47132C8.80883 9.35525 8.77013 9.18659 8.75079 8.96521L8.73386 8.77188L9.49799 8.70489L9.52942 9.06423C9.53909 9.17498 9.55724 9.24511 9.58142 9.27485C9.6056 9.30459 9.64429 9.31704 9.69991 9.31221C9.75432 9.30737 9.793 9.2838 9.81597 9.24136C9.84015 9.1988 9.84742 9.13822 9.84137 9.05915C9.82565 8.88529 9.79058 8.77381 9.73496 8.72472C9.67814 8.67588 9.54151 8.59765 9.3263 8.4904C9.10988 8.38183 8.9672 8.30203 8.89466 8.25052C8.82332 8.19926 8.76166 8.12514 8.70967 8.02781C8.65648 7.93085 8.62383 7.80389 8.60932 7.64696C8.58998 7.42086 8.6069 7.2528 8.65889 7.1429C8.71209 7.03287 8.8052 6.94243 8.93819 6.87122C9.07119 6.80025 9.23562 6.75612 9.43149 6.73907C9.6455 6.72021 9.83049 6.73653 9.98646 6.78779C10.1424 6.83906 10.2488 6.9116 10.3069 7.00506C10.3637 7.09877 10.4036 7.26284 10.4241 7.49752L10.4338 7.61419Z" fill="#87D6BA"/>
<path d="M11.4457 6.62518L11.7032 9.57784L10.8798 9.6499L10.6223 6.69712L11.4457 6.62518Z" fill="#87D6BA"/>
<path d="M13.8228 7.61753L12.991 7.69031L12.962 7.35734C12.9487 7.20814 12.9317 7.11589 12.91 7.08034C12.8894 7.04491 12.8483 7.02992 12.7879 7.03524C12.7202 7.04128 12.6778 7.0674 12.6633 7.11407C12.6488 7.16062 12.6488 7.25868 12.6609 7.40824L12.7661 8.608C12.7794 8.75163 12.7963 8.84437 12.8181 8.88657C12.8411 8.92864 12.8846 8.9469 12.9487 8.94122C13.0103 8.9359 13.049 8.9105 13.0647 8.86492C13.0805 8.81934 13.0805 8.71548 13.0659 8.55335L13.0333 8.16983L13.8651 8.09704L13.8833 8.31032C13.9099 8.61598 13.905 8.8347 13.87 8.96673C13.8349 9.09864 13.7406 9.21978 13.5895 9.32993C13.4371 9.4402 13.2449 9.50549 13.0103 9.52604C12.7661 9.54732 12.5618 9.52423 12.3961 9.45652C12.2317 9.38893 12.1168 9.2852 12.0527 9.14567C11.9887 9.00614 11.9439 8.79177 11.9185 8.5022L11.8436 7.63953C11.8242 7.42686 11.8194 7.26654 11.8254 7.15881C11.8315 7.05108 11.8702 6.94444 11.9403 6.83901C12.0092 6.73382 12.1108 6.64677 12.245 6.57809C12.3792 6.50942 12.5364 6.4671 12.7165 6.45138C12.962 6.42998 13.1687 6.45585 13.3356 6.52937C13.5024 6.60288 13.6161 6.70275 13.6777 6.82885C13.7394 6.95496 13.7817 7.1559 13.8059 7.43157L13.8228 7.61753Z" fill="#87D6BA"/>
<path d="M14.6716 6.33725L16.0342 6.21791L16.0862 6.81133L15.5276 6.86017L15.5772 7.42239L16.0742 7.37886L16.1237 7.94289L15.6268 7.98642L15.7356 9.23176L14.9304 9.30225L14.6716 6.33725Z" fill="#87D6BA"/>
<path d="M17.0352 6.13065L17.294 9.09553L16.4887 9.16602L16.23 6.20102L17.0352 6.13065Z" fill="#87D6BA"/>
<path d="M18.9794 5.9604L19.0314 6.55369L18.5538 6.59564L18.7606 8.96723L17.9553 9.0376L17.7486 6.66613L17.2722 6.70772L17.2202 6.11443L18.9794 5.9604Z" fill="#87D6BA"/>
<path d="M14.066 8.07959L14.6077 8.03232L14.5666 7.5528L14.0249 7.60007L14.066 8.07959Z" fill="#87D6BA"/>
<path d="M5.26975 8.79927L5.34109 9.62555C5.45716 9.61164 5.57323 9.58444 5.60224 9.55131C5.63126 9.51794 5.64093 9.44189 5.63005 9.32268L5.60587 9.04737C5.59499 8.92078 5.57444 8.84558 5.54301 8.82128C5.51157 8.79709 5.39187 8.79214 5.26975 8.79927ZM5.17182 7.68306L5.22865 8.3397C5.26371 8.33547 5.33504 8.3287 5.35438 8.32689C5.43539 8.31987 5.48496 8.29678 5.5031 8.25785C5.52244 8.2188 5.52486 8.11179 5.50914 7.9366C5.50068 7.8441 5.48618 7.78027 5.46442 7.74472C5.44265 7.70929 5.41726 7.68789 5.38703 7.68076C5.35681 7.67363 5.25645 7.67689 5.17182 7.68306ZM4.30371 7.24997L5.12588 7.17803C5.38462 7.15542 5.62642 7.15336 5.76305 7.17924C5.89967 7.20523 6.01454 7.27198 6.10643 7.37958C6.19953 7.48731 6.25635 7.66867 6.27812 7.92378C6.29384 8.09632 6.2757 8.21928 6.22371 8.29243C6.17051 8.36546 6.0617 8.42784 5.89364 8.47911C6.08709 8.50269 6.2225 8.55794 6.29867 8.64511C6.37485 8.73217 6.42079 8.87193 6.43772 9.06405L6.4619 9.33779C6.47883 9.53729 6.46794 9.68721 6.42683 9.78768C6.38693 9.88804 6.31438 9.96058 6.2104 10.0052C6.10642 10.0498 5.88879 10.0867 5.55751 10.1156L4.56244 10.2026L4.30371 7.24997Z" fill="#87D6BA"/>
</svg>
