<svg width="24" height="25" viewBox="0 0 24 25" fill="none" xmlns="http://www.w3.org/2000/svg">
<path d="M11.8677 24.8398C7.11862 24.8398 3.26318 20.9747 3.26318 16.2325C3.26318 11.4904 7.12713 7.62524 11.8677 7.62524C16.6168 7.62524 20.4722 11.4904 20.4722 16.2325C20.4722 20.9747 16.6168 24.8398 11.8677 24.8398ZM11.8677 8.89377C7.82502 8.89377 4.53982 12.1801 4.53982 16.224C4.53982 20.268 7.82502 23.5543 11.8677 23.5543C15.9104 23.5543 19.1956 20.268 19.1956 16.224C19.1956 12.1801 15.9104 8.89377 11.8677 8.89377Z" fill="#7ADEC9"/>
<path d="M18.3701 7.01222H17.0935V4.4922C17.0935 3.1811 16.0296 2.11689 14.719 2.11689H9.01666C7.70598 2.11689 6.64211 3.1811 6.64211 4.4922V6.9867H5.36548V4.4922C5.36548 2.47447 6.99957 0.839844 9.01666 0.839844H14.719C16.736 0.839844 18.3701 2.47447 18.3701 4.4922V7.01222Z" fill="white"/>
</svg>
