<svg width="24" height="25" viewBox="0 0 24 25" fill="none" xmlns="http://www.w3.org/2000/svg">
<path d="M17.0923 24.1575H6.51612C5.05376 24.1575 3.86499 22.9683 3.86499 21.5055V2.80946C3.86499 1.34662 5.05376 0.157471 6.51612 0.157471H17.0923C18.5546 0.157471 19.7434 1.34662 19.7434 2.80946V21.5149C19.7434 22.9683 18.5546 24.1575 17.0923 24.1575ZM6.52555 1.02574C5.54435 1.02574 4.74241 1.82794 4.74241 2.80946V21.5149C4.74241 22.4964 5.54435 23.2986 6.52555 23.2986H17.1017C18.0829 23.2986 18.8849 22.4964 18.8849 21.5149V2.80946C18.8849 1.82794 18.0829 1.02574 17.1017 1.02574H6.52555Z" fill="#7ADEC9"/>
<path d="M18.0264 19.901H5.70483V4.3855H18.0264V19.901ZM6.57282 19.0328H17.1584V5.25376H6.57282V19.0328Z" fill="white"/>
<path d="M13.658 2.39429H10.0823V3.26255H13.658V2.39429Z" fill="#7ADEC9"/>
<path d="M12.4883 22.5909H11.224C10.9882 22.5909 10.79 22.3927 10.79 22.1568V20.8921C10.79 20.6562 10.9882 20.458 11.224 20.458H12.4883C12.7241 20.458 12.9223 20.6562 12.9223 20.8921V22.1568C12.9223 22.3927 12.7336 22.5909 12.4883 22.5909ZM11.658 21.7227H12.0543V21.3263H11.658V21.7227Z" fill="#7ADEC9"/>
</svg>
