<svg width="25" height="24" viewBox="0 0 25 24" fill="none" xmlns="http://www.w3.org/2000/svg">
<path d="M12.1422 10.7813C9.769 10.7813 7.84521 8.84904 7.84521 6.48296C7.84521 4.11687 9.77689 2.18457 12.1422 2.18457C14.5075 2.18457 16.4392 4.11687 16.4392 6.48296C16.4392 8.84904 14.5075 10.7813 12.1422 10.7813ZM12.1422 3.35973C10.4234 3.35973 9.02787 4.75572 9.02787 6.47507C9.02787 8.19443 10.4234 9.59041 12.1422 9.59041C13.861 9.59041 15.2565 8.19443 15.2565 6.47507C15.2565 4.75572 13.8531 3.35973 12.1422 3.35973Z" fill="#7ADEC9"/>
<path d="M20.4841 22.1464H19.3014V21.0896C19.3014 17.1461 16.1004 13.944 12.1582 13.944C8.21599 13.944 5.01493 17.1461 5.01493 21.0896V22.1464H3.83228V21.0896C3.83228 16.4994 7.56947 12.761 12.1582 12.761C16.7469 12.761 20.4841 16.4994 20.4841 21.0896V22.1464Z" fill="#7ADEC9"/>
<path d="M20.4131 11.0574C21.58 10.2845 22.3526 8.96738 22.3526 7.46098C22.3526 5.08701 20.421 3.1626 18.0557 3.1626V4.34564C19.7745 4.34564 21.17 5.74163 21.17 7.46098C21.17 9.18033 19.7745 10.5763 18.0557 10.5763V11.7594C20.7442 11.7594 22.9361 13.9519 22.9361 16.6414H24.1187C24.1187 14.1412 22.5892 11.9802 20.4131 11.0574Z" fill="white"/>
<path d="M6.18173 4.35345V3.17041C3.80853 3.17041 1.88475 5.10271 1.88475 7.46879C1.88475 8.96731 2.65742 10.2923 3.82431 11.0652C1.64822 11.988 0.118652 14.1411 0.118652 16.6571H1.30131C1.30131 13.9676 3.49316 11.7751 6.18173 11.7751V10.592C4.46294 10.592 3.0674 9.19604 3.0674 7.47668C3.0674 5.75733 4.46294 4.35345 6.18173 4.35345Z" fill="white"/>
</svg>
